<svg version="1.2" xmlns="http://www.w3.org/2000/svg" viewBox="0 0 300 300" width="300" height="300">
    <style>
        path {
            fill: black;
        }
        @media (prefers-color-scheme: dark) {
            path {
                fill: white;
            }
        }
    </style>
    <path  d="m34.4 171.4l100.2 93.7c4.2 3.9 9.7 6 15.4 6 5.7 0 11.2-2.1 15.4-6l100.2-93.7c16.9-15.7 26.4-37.8 26.4-60.8v-3.2c0-38.8-28-71.9-66.2-78.3-25.3-4.2-51.1 4-69.1 22.1l-6.7 6.7-6.7-6.7c-18-18.1-43.8-26.3-69.1-22.1-38.2 6.4-66.2 39.5-66.2 78.3v3.2c0 23 9.5 45.1 26.4 60.8z"/>
</svg>